<mxfile host="" modified="2020-07-07T14:32:48.095Z" agent="5.0 (Macintosh; Intel Mac OS X 10_15_5) AppleWebKit/537.36 (KHTML, like Gecko) Code/1.46.1 Chrome/78.0.3904.130 Electron/7.3.1 Safari/537.36" etag="Gp6Brmr6y6cJZs2w4HxF" version="13.1.3">
    <diagram id="6hGFLwfOUW9BJ-s0fimq" name="Page-1">
        <mxGraphModel dx="11566" dy="549" grid="1" gridSize="10" guides="1" tooltips="1" connect="1" arrows="1" fold="1" page="1" pageScale="1" pageWidth="827" pageHeight="1169" background="#FFFFFF" math="0" shadow="0">
            <root>
                <mxCell id="0"/>
                <mxCell id="1" parent="0"/>
                <mxCell id="85" value="" style="rounded=0;whiteSpace=wrap;html=1;labelBackgroundColor=none;strokeColor=#000000;strokeWidth=4;fillColor=none;fontColor=#000000;fontStyle=1" vertex="1" parent="1">
                    <mxGeometry x="-10160" y="300" width="550" height="430" as="geometry"/>
                </mxCell>
                <mxCell id="72" value="" style="html=1;dashed=0;whitespace=wrap;fillColor=#2875E2;strokeColor=#ffffff;points=[[0.005,0.63,0],[0.1,0.2,0],[0.9,0.2,0],[0.5,0,0],[0.995,0.63,0],[0.72,0.99,0],[0.5,1,0],[0.28,0.99,0]];shape=mxgraph.kubernetes.icon;prIcon=master;labelBackgroundColor=none;fontColor=#000000;" vertex="1" parent="1">
                    <mxGeometry x="-10016" y="530" width="118" height="116" as="geometry"/>
                </mxCell>
                <mxCell id="84" value="" style="edgeStyle=orthogonalEdgeStyle;rounded=0;orthogonalLoop=1;jettySize=auto;html=1;fontSize=18;fontColor=#000000;" edge="1" parent="1">
                    <mxGeometry relative="1" as="geometry">
                        <mxPoint x="-10390" y="356.5" as="sourcePoint"/>
                        <mxPoint x="-10470" y="356.5" as="targetPoint"/>
                    </mxGeometry>
                </mxCell>
                <mxCell id="86" value="" style="html=1;dashed=0;whitespace=wrap;fillColor=#2875E2;strokeColor=#ffffff;points=[[0.005,0.63,0],[0.1,0.2,0],[0.9,0.2,0],[0.5,0,0],[0.995,0.63,0],[0.72,0.99,0],[0.5,1,0],[0.28,0.99,0]];shape=mxgraph.kubernetes.icon;prIcon=master;labelBackgroundColor=none;fontColor=#000000;labelPosition=center;verticalLabelPosition=bottom;align=center;verticalAlign=top;" vertex="1" parent="1">
                    <mxGeometry x="-9833.5" y="531" width="120" height="118" as="geometry"/>
                </mxCell>
                <mxCell id="87" value="" style="html=1;dashed=0;whitespace=wrap;fillColor=#2875E2;strokeColor=#ffffff;points=[[0.005,0.63,0],[0.1,0.2,0],[0.9,0.2,0],[0.5,0,0],[0.995,0.63,0],[0.72,0.99,0],[0.5,1,0],[0.28,0.99,0]];shape=mxgraph.kubernetes.icon;prIcon=master;labelBackgroundColor=none;fontColor=#000000;" vertex="1" parent="1">
                    <mxGeometry x="-9844.5" y="540" width="120" height="118" as="geometry"/>
                </mxCell>
                <mxCell id="88" value="" style="html=1;dashed=0;whitespace=wrap;fillColor=#2875E2;strokeColor=#ffffff;points=[[0.005,0.63,0],[0.1,0.2,0],[0.9,0.2,0],[0.5,0,0],[0.995,0.63,0],[0.72,0.99,0],[0.5,1,0],[0.28,0.99,0]];shape=mxgraph.kubernetes.icon;prIcon=master;labelBackgroundColor=none;fontColor=#000000;" vertex="1" parent="1">
                    <mxGeometry x="-10029" y="540" width="118" height="116" as="geometry"/>
                </mxCell>
                <mxCell id="89" value="DNS" style="shape=mxgraph.gcp.networking.cloud_dns;html=1;fillColor=#4387FD;gradientColor=#4683EA;strokeColor=none;verticalLabelPosition=bottom;verticalAlign=top;align=center;labelBackgroundColor=none;fontColor=#000000;fontSize=18;" vertex="1" parent="1">
                    <mxGeometry x="-10110" y="370" width="129" height="113" as="geometry"/>
                </mxCell>
                <mxCell id="90" value="DHCP" style="shape=mxgraph.gcp.networking.cloud_dns;html=1;fillColor=#4387FD;gradientColor=#4683EA;strokeColor=none;verticalLabelPosition=bottom;verticalAlign=top;align=center;labelBackgroundColor=none;fontColor=#000000;fontSize=18;" vertex="1" parent="1">
                    <mxGeometry x="-9950.5" y="370" width="129" height="113" as="geometry"/>
                </mxCell>
                <mxCell id="92" value="&lt;font style=&quot;font-size: 18px&quot;&gt;Bastion Host&lt;/font&gt;" style="shape=mxgraph.gcp.networking.cloud_dns;html=1;fillColor=#4387FD;gradientColor=#4683EA;strokeColor=none;verticalLabelPosition=top;verticalAlign=bottom;align=center;labelBackgroundColor=none;fontColor=#000000;labelPosition=center;" vertex="1" parent="1">
                    <mxGeometry x="-10230" y="250" width="129" height="113" as="geometry"/>
                </mxCell>
                <mxCell id="93" value="" style="html=1;dashed=0;whitespace=wrap;fillColor=#2875E2;strokeColor=#ffffff;points=[[0.005,0.63,0],[0.1,0.2,0],[0.9,0.2,0],[0.5,0,0],[0.995,0.63,0],[0.72,0.99,0],[0.5,1,0],[0.28,0.99,0]];shape=mxgraph.kubernetes.icon;prIcon=master;labelBackgroundColor=none;fontColor=#000000;" vertex="1" parent="1">
                    <mxGeometry x="-10042" y="550" width="120" height="118" as="geometry"/>
                </mxCell>
                <mxCell id="94" value="Master Nodes" style="html=1;dashed=0;whitespace=wrap;fillColor=#2875E2;strokeColor=#ffffff;points=[[0.005,0.63,0],[0.1,0.2,0],[0.9,0.2,0],[0.5,0,0],[0.995,0.63,0],[0.72,0.99,0],[0.5,1,0],[0.28,0.99,0]];shape=mxgraph.kubernetes.icon;prIcon=master;labelBackgroundColor=none;fontColor=#000000;labelPosition=center;verticalLabelPosition=bottom;align=center;verticalAlign=top;fontSize=18;" vertex="1" parent="1">
                    <mxGeometry x="-10042" y="550" width="120" height="118" as="geometry"/>
                </mxCell>
                <mxCell id="95" value="Master Nodes" style="html=1;dashed=0;whitespace=wrap;fillColor=#2875E2;strokeColor=#ffffff;points=[[0.005,0.63,0],[0.1,0.2,0],[0.9,0.2,0],[0.5,0,0],[0.995,0.63,0],[0.72,0.99,0],[0.5,1,0],[0.28,0.99,0]];shape=mxgraph.kubernetes.icon;prIcon=node;labelBackgroundColor=none;fontColor=#000000;labelPosition=center;verticalLabelPosition=bottom;align=center;verticalAlign=top;fontSize=18;" vertex="1" parent="1">
                    <mxGeometry x="-8980" y="657" width="129.5" height="40" as="geometry"/>
                </mxCell>
                <mxCell id="96" value="Kubernetes Network&amp;nbsp;" style="text;html=1;strokeColor=none;fillColor=none;align=left;verticalAlign=middle;whiteSpace=wrap;rounded=0;labelBackgroundColor=none;fontSize=18;fontColor=#000000;" vertex="1" parent="1">
                    <mxGeometry x="-9991" y="310" width="190" height="20" as="geometry"/>
                </mxCell>
                <mxCell id="97" value="Office Network" style="text;html=1;strokeColor=none;fillColor=none;align=left;verticalAlign=middle;whiteSpace=wrap;rounded=0;labelBackgroundColor=none;fontSize=18;fontColor=#000000;" vertex="1" parent="1">
                    <mxGeometry x="-9991" y="270" width="190" height="20" as="geometry"/>
                </mxCell>
                <mxCell id="98" value="PXE" style="shape=mxgraph.gcp.networking.cloud_dns;html=1;fillColor=#4387FD;gradientColor=#4683EA;strokeColor=none;verticalLabelPosition=bottom;verticalAlign=top;align=center;labelBackgroundColor=none;fontColor=#000000;fontSize=18;" vertex="1" parent="1">
                    <mxGeometry x="-9770" y="363" width="129" height="113" as="geometry"/>
                </mxCell>
                <mxCell id="99" value="Worker Node" style="html=1;dashed=0;whitespace=wrap;fillColor=#2875E2;strokeColor=#ffffff;points=[[0.005,0.63,0],[0.1,0.2,0],[0.9,0.2,0],[0.5,0,0],[0.995,0.63,0],[0.72,0.99,0],[0.5,1,0],[0.28,0.99,0]];shape=mxgraph.kubernetes.icon;prIcon=node;labelBackgroundColor=none;fontSize=18;fontColor=#000000;align=center;labelPosition=center;verticalLabelPosition=bottom;verticalAlign=top;" vertex="1" parent="1">
                    <mxGeometry x="-9870.5" y="550" width="150" height="117" as="geometry"/>
                </mxCell>
            </root>
        </mxGraphModel>
    </diagram>
</mxfile>